# xmcd
#
# Track frame offsets:
# 150
# 17460
# 41402
# 61457
# 77967
# 105160
# 148740
# 188107
# 215365
#
# Disc length: 3216 seconds
#
#
# Revision: 0
# Processed by: cddbd v1.5.2PL0 Copyright (c) Steve Scherf et al.
# Submitted via: FreeRIP 2.96 
#
DISCID=710c8e09
DTITLE=John Mayer - Where The Light Is - Live in Los Angeles [CDTwo)
DYEAR=2008
DGENRE=Blues
TTITLE0=Waiting on the World to Change
TTITLE1=Slow Dancing in a Buring Room
TTITLE2=Why Georgia
TTITLE3=The Heart of Life
TTITLE4=I Don't Need no Doctor
TTITLE5=Gravity
TTITLE6=I Don't Trust Myself (With Loving You)
TTITLE7=Belief
TTITLE8=I'm Gonna Find Another You
EXTD=BLUES - RODRIGO
EXTT0=
EXTT1=
EXTT2=
EXTT3=
EXTT4=
EXTT5=
EXTT6=
EXTT7=
EXTT8=
PLAYORDER=
